<?xml version="1.0" encoding="UTF-8"?> <svg xmlns="http://www.w3.org/2000/svg" viewBox="0 0 324.78 324.92"><defs><style>.cls-1,.cls-2{fill:#0095da;}.cls-1,.cls-11,.cls-3,.cls-4,.cls-7,.cls-9{fill-rule:evenodd;}.cls-3{fill:#fff;}.cls-4,.cls-5{fill:#007a45;}.cls-6{fill:none;stroke:#fff;stroke-miterlimit:2.61;stroke-width:0.27px;}.cls-7,.cls-8{fill:#ecaf2c;}.cls-10,.cls-9{fill:#005cab;}.cls-11{fill:#231f20;}</style></defs><title>Asset 1</title><g id="Layer_2" data-name="Layer 2"><g id="Layer_1-2" data-name="Layer 1"><path class="cls-1" d="M213.68,176a31.58,31.58,0,0,1,30.95,31.67l0,67.3H176.34V175.74Z"></path><path class="cls-1" d="M287.44,176a31.59,31.59,0,0,0-31,31.67l0,67.3h68.25V175.74Z"></path><rect class="cls-2" x="176.34" y="277.93" width="148.35" height="45.87"></rect><path class="cls-3" d="M178.43,304.29l1.4-.87,1.76-.18,1.93-.17,2.1-.35,1.58-.7,1.4-.53,1.75-1,1.23-1.4.53-1.05.87-.18h1.76l2.1-.52,1.58-1.05,1.05-2.1,1.23.18h3.15l1.58-1.05,1.4-1.93,1.4-1.05,1.23.7,1.4.18h1.41l1.4-.53,1.4-.87.7-1.4,1.23.87,1.05.7,1.58.53,1.4-.35,1.23-.88.7-1,1,.69,1.75.88h1.41l1.57-.18,1.41-.17,2.1-1.22,1.05,1,1.41.53h1.57l1.58-.35,1.4-.53,1.23.7.88,1,1.22.7,1.58.53,1.4.17,1.06-.35h.87l.88.18,1.23.87,1.22.35.88-.52h1.4l1,1.05,1.06.17h1.92l1.41-.52.87,1.05,1.06.87,1.57.87h1.58l1.05-.87.88.87.87.7a6,6,0,0,0,1.76.7l1.23-.35.87.88.88.52.88.53h1.22l2.46-.88,1.75-.87,2.1-1.05,2.11-.53h1.4l.7,1.23-.35,1.22-.7,1.58-.18,1.05.53,1.39,1.58.88,1.75.52h2.45l3.69-1,3.15-1.05,3.16-1.74,3.15-1.93,2.11-1.4,2.45-1.22,2.45-.7h4.91l2.46.17,2.45.53,1.93.52-3,1.58-2.8,1.05-2.81,1.22-1.93.53-1.4,1.22-1.58,1.57-1.23,1.58-1.22,2.44,1.4,1.23,1.4,1.75,1.23,1.75.52,1.57,1.06.52-2.11.35-2.1-.52-2.63-.87-2.28-1.4L299,310.06l-3-1.05,1.89-.82,1.57-.67,1.19-1,2.17-1.79,1.79-1.64,1.57-1.49,1.49-1.86,1.94-1.71,1.2-1.12,1.87-.82-1.87.52-1.42.82-1.72,1-1.34,1-1.57,1.34-2.24,2.31-1.94,1.79-1.94,1.49-2.84,1.41-1.64.52-1.79.23-1.42-.08-1.12-.15-1-.15h-.68l.53,1.05.74.52.75,1,.6.52.3.82-.23.6-.6.3-1.64.29-2.69-.15-2.46-.29-1.79-.53-2.09-.89-1.5-.45L276.6,311l-1.35.07h-2.46l-.67.53.37,1.19.52,1,.23.44-.23.45-1.71-.37-2.32-.9-1.79-.67-1.87-.67-1.72-.59-.89-.23-.9.15-.59.37-.3.38-.82-.38-1-.37-1,.23-.89.52-.6.59-.67-.52-1.94.9-2,.14h-1.79l-1.94-.37-1.42-.22-1.64.22-1.05.08-1-.82-1.57-.23h-1.2l-.82.6-1.12.74-.75-.52-1-.74h-2.53l-1.05.52-.75.45-1.12-.75-1.34-.59-1.05-.15-1.19.07-1,.45-.45.37-.15-.07-.89-.45-1.12-.52-.75-.67-.82-.23-1.27-.37-.67-.89-.82-.45-1.35-.22-1.49-.45-1.12-.45-1.57-.37-.75-.74v-1.05l-.3-.89-.59-.74-.82-.67-.45-1.12,1,.3.52-.08.3-.45.45-.37.74.15.75.9.6.74.74.45.45.07-.15-2.75.68.89.74.89,1,.75.68.59v-2.53l.89.52.82,1,.9.67.6.6.22-1.34.22-1.27.9.67.9.75.52.44.45.6.82.52-.08-1.27v-2l.9.45.52.67.75.67.89.67.6.75.45-.68L231,303v-1l.9.82.82.82.67.89.53.45.74.44.08-.89-.45-.82-.15-1.41,1,.67.89,1,1,.75.75.6h.45l-.3-1.05.15-1.49.67.67.67.9.45.74.52.52.82.3.3-1-.15-1.49.82.3.6,1,.67.74.83.6.22-.74-.22-.9v-.89l1.26,1.19.68,1,.52.52.67.52.15-.82-.15-1v-1l.75.9.74.52.75.52.38.45.52.15.07-1.05-.15-1v-.53l.6.6.75.75.89.74.53.37.37.3.37.15v-1l-.22-1.12,1,.6.68.82.52.3.67.52.15-.82-.15-1.12.6.67.6.45.74.45.37.15-.07-.75v-1.12l1,.82.75.67.74.38.3-.68-.15-1,.68.59.74.52.75.38.67-.08.08-.52.82.37.37.52.6.3.22-.52.3-.37.37.22.3.37.3-.59.3-.38.75.08.37.37h.37l.45.38,1.12.14a1.89,1.89,0,0,1,.82-.29h.9l.74.15s.38-.53.83-.23a4.62,4.62,0,0,1,.59.45l.45-.37.67.44.53-.37.37-.3.75.3a1.4,1.4,0,0,0,.89-.22l.38-.53.59.6.9.37h1l.53-.14h.37l.37-.53h-.89l-.45-.22h-.75l-.52.07-.37-.15-.45-.29-1.05.15-.37.29-.82-.29-1-.23-.82-.22-1.72-.15-1.94-.07-1.87-.15-1.49-.45h-2.84l-1.64-.07-1.72-.23L261,304l-1.34-.08-2.09-.07-2-.15-1.72-.15-1.34-.3-1.42-.14-1.19-.23-1.65-.07-1.56-.08-1.72-.22-1.72-.22-1.87-.23-1.41-.15-1.8-.22-2.76-.22-2.24-.15-2.31-.3-2.32-.22-2.69-.15-2-.23-2.54-.14-2.39-.08-2.39-.15-2.54.08h-2.54l-1.49-.08-1.42-.22-.45.45-.52.59-.15.82v1l-.22.74-.6.67-1.12.53h-1.35l-.74-.53-.45-.74-.6-1v-.9l.08-.59-1-.08-.15.9.15,1.34.45,1.26.82.9.67.52.9.44.9.08H206l1-.52.9-.52.3-.75.22-.74.37-.6.23-.59.52-.53H210l.45.75.3.89.37.9.53.67.37.22.22.82.3.89.45.6.52.44.9.15,1.19.45,1.27.37,1,.38,1.34.37,1.05.52,1,.74,1.27.82.89,1.2.75,1,.15,1.12.07.74-1.26-.15-2.32-.3-2.24-.82-3.14-1.26-1.42-.82-1.56-1-.9-.67-1-.75-.9-.22-.82.15-.67.07h-.82l-1-.67-.52-.74-.67-.08-.75.37-1,.38h-1.27v.07l-1.35-.22-1.12-.23-1.34-.29-1-.38h-.9l-.82.15-.74.23-.9.14-1.19-.22-1-.45-.68-.37-.89-.37-.9-.08-.6.38.23,1,.15.74-.15.45-1.65-.15-1-.75-.37-.89-.75-.89-.82-.52-.82-.15-1.27.07-1.12-.3-.9-.15-.82-.52-.52-.74Z"></path><path class="cls-1" d="M225.08,299.33l-3.21-3.05.07,2.16.37.67a2.69,2.69,0,0,0,.9.15c.52,0,1.87.07,1.87.07"></path><path class="cls-1" d="M221.19,299l-2.91-2.9.08,1v.67l.15.89a.64.64,0,0,0,.59.3,15.46,15.46,0,0,1,2.09.07"></path><polygon class="cls-1" points="217.91 298.81 215.22 295.98 215.37 296.65 215.37 297.54 215.52 298.29 216.34 298.74 217.91 298.81"></polygon><path class="cls-1" d="M215.29,298.59,214,297.47l-1.72-1.34-.07.67.07.82.45.59a1.18,1.18,0,0,0,.9.45,8.34,8.34,0,0,0,1.71-.07"></path><polygon class="cls-1" points="211.82 298.52 211.37 298.96 209.95 298.96 208.76 298.89 207.71 298.81 206.74 299.11 205.4 299.19 204.2 299.19 202.93 298.74 203.83 297.77 205.17 296.8 207.04 295.98 208.46 295.31 209.95 294.87 211.15 294.79 212.49 294.79 213.46 295.01 213.46 295.61 212.79 296.06 211.97 296.21 211.22 296.43 210.32 296.43 209.58 296.58 209.73 297.1 210.62 297.7 211.82 298.52"></polygon><path class="cls-1" d="M192.89,302a1,1,0,1,1-1,1,1,1,0,0,1,1-1"></path><path class="cls-1" d="M189.76,301.49l.52.82.52-.59.82-.45,1-.37,1-.08.67.3.67.74.3,1.05-.15,1v1.05l.08.82.67.74.6.67.45.82.59-.15-.07-1-.52-1v-1.19l.22-1.27.3-1,1-1.26,1.05-1.12,1.19-1,1.19-1,1.57-1,4-2.08,1.64-.52,2-.6,2.46-.52,2.17-.37,2.54-.23,2.46-.15,2.69.23,2-.08h1.5l2.69.3,1.86.08,2.24.22,2.24.3h1.72l1.34.22,1.5.07,2.16.3,1.79.3,1.72.22,1.72.23,1.79.3,2.39.29,1.87.45,1.64.45,1.49.44,2.17.38,1.27.44,1.64.52,1.2.23,1.12.3,1.26.22,1.13.37a3.33,3.33,0,0,0,.89.3c.45.07,1.2.22,1.2.22l.89.15,1,.3.9.15-.9-.6-.59-.29-.3-.53-.23-.44-.45-.23-.74.08-.75.22H267l-.59-.22-.38-.38-.44-.52-.3-.52-.38-.22-.59.15-.38.3h-1.56l-1-.38-.82-.52-.74-.52-.53-.37-.67-.37-.67.52-.6.44-.6-.07-.29-.6-.9-.14-1-.45-.6-.52-1-.75-.37-.3h-.52l-.23.45.08.75-.38.29-.67-.14-.67-.38-1.34-1-1.13-.59-.67-.52-.59.59-.38.52-.67.08h-.9l-.82-.45-1-.82-1.12-.67-1-.44-.67-.38-.6-.15-.45.38v.59l-.14.52-.6.3-1.12-.3-1.27-.44-1.27-.67-1.12-.38-.75-.22-1.12-.07-.52.22v1.19l-.37.22-.68-.07-1-.22-1-.15-1-.37-1-.38-.82-.29-.75-.3-.75-.08-.22.52v.6l-.3.37h-.75l-.67-.22-1.34-.15-1-.22-1.35-.3-.82-.08-.82.15-.67.6-.6.82-.6.52-.59.07-.75-.14h-1.12l-1-.23-.74-.15-.75-.07-.75-.15-.82.37L208,293l-.15.67-.45.52-.67.45-1,.07-.9-.07-.52.07-.52.45-1.05.3-.9.07-.82-.44-.74-.08-.53.45-.07.82-.22,1-.53.67-1,.44-1.86.3-.53-.07-.74-.23-.68-.07-.37.37-.45.37h-1.19L191,300.22l-.6.75s-.52.67-.67.52"></path><polygon class="cls-1" points="216.94 294.64 216.34 294.19 215.29 294.04 214.32 294.04 213.88 294.56 214.03 295.24 214.77 295.46 215.89 295.46 216.71 295.16 216.94 294.64"></polygon><path class="cls-1" d="M217.24,294l.44.67.68.6a9.83,9.83,0,0,0,1.19.15h2.09a14.1,14.1,0,0,0,1.72,0c.52-.08,2.16-.15,2.54-.15s2.54.22,2.54.22,2.09.15,2.91.15,2.91.15,2.91.15l2.84.3,3.73.45,3.29.67,3.43.37s2.61.6,3,.6,2.91.37,2.91.37l.37-.37.53.44,1.49.37,1.27.15.6.37.74.08,1.05-.22.82.14s0,.23.45.38a3.87,3.87,0,0,0,1,.15,3.58,3.58,0,0,1,1,.29l.45-.67-1.2-.52-1.42-.22-1.64-.6-1.19-.22-1.27-.3-1.42-.22-1.12-.45-.67-.15-.75.08-.75.29-.37-.59-.75-.22-.82-.15-.89.37-.53-.52-1.27-.37-1.42-.3h-1l-.37.22-.45-.45-.67-.22-1-.22h-.75l-1-.23-.89-.15-.45-.22-.23.52h-.52l-.6-.15-.59-.52-1.12-.07-3-.3-2.46-.37-1.65-.08-1.56-.07-1.95.07-1.86.08-1.57.15-1.34.07-1.27.23-1.2-.15Z"></path><polygon class="cls-1" points="232.99 300.15 230.9 298.51 230.08 297.39 229.48 296.95 229.71 298.29 229.85 298.88 227.99 297.54 226.72 296.73 225.52 295.83 226.05 297.84 226.2 298.81 226.35 299.4 228.81 300.08 230.3 300.37 231.65 300.37 232.99 300.15"></polygon><path class="cls-1" d="M232.69,296.43l1.12,3.65h1.05l1,.15,1.12.22.74.07,1.05.3a3,3,0,0,0,1,.22c.45,0,1.79.08,1.79.08l1.5.37,1.34.15,1.42.15.82.07H249l.22-.67-.89-.82-.9-.82-.67-.81-.67-.67.07,1,.15.82.23.82L244.79,299l-1-.67-.82-.75.44,2.83-1.64-1.63-1.27-.82-1.12-.9.38,1.19.15.6.44.89-1.57-1.26-1.19-.9-1-.59-.82-.45.6,1.19.29.9.08.52H236l-1-.75-.67-.89Z"></path><polygon class="cls-1" points="289.21 306.03 288.47 305.59 288.02 305.88 288.02 306.41 288.69 306.56 289.21 306.03"></polygon><polygon class="cls-1" points="287.2 306.33 286.83 306.04 286.08 305.81 285.71 306.26 285.78 306.85 286.83 306.85 287.2 306.33"></polygon><polygon class="cls-1" points="285.11 306.63 284.66 306.26 283.76 306.11 283.39 306.41 283.32 307 283.76 307.08 284.51 307.08 285.11 306.63"></polygon><path class="cls-1" d="M249.64,298.81l.23.82.14,1.12.23,1.19,1.49.3,1.57.14,1.49.3,1.87.3,2.61.22,1.87.08h1.49l1.2.15,1.19.15,1.05.15.82-.15,1.57.22.89.08,1,.29a4.42,4.42,0,0,0,1.34.3c.6,0,1.35.07,1.35.07h1s.9-.07,1.35-.07a5.15,5.15,0,0,1,1,0c.38.07.82.15,1.35.22a6.65,6.65,0,0,1,1,.23l1.34.07.6.08-1.5-.53-1-.07-.89-.3-1.2-.15H275l-.52-.07-.9-.07-.74-.08-.45-.15-.6-.3-.59-.22-.6-.3v.52l-.23.45-.37-.15-.37-.59-.38-.38-.44-.07-.15.59-.45-.52-.52-.15-.6-.29-.08.37.08.52-.67-.45-.53-.37-.89-.52.07.67.6.82-.82-.22-.6-.23-.52-.52-.45-.74-.3.59v.52l-.45-.22-.67-.45-.67-.59-.52-.82.07,1.12.45,1.11-1.12-.89-.82-.6-.75-.74-.82-.45.15.89.07.68.23.52.07.37-.67-.37-.67-.82-.67-.67-.82-.6-.6-.22.45.89.15.82h-.45l-.52-.74-.75-.6-.45-.6-.89-.44.22.74.15.67.22.82-1.12-.74-.67-.45-.45-.52Z"></path><polygon class="cls-1" points="266.22 300.75 266.07 300.3 265.32 300 264.65 299.85 263.68 299.7 263.23 299.78 262.93 300.38 263.53 300.97 264.35 301.04 265.32 301.04 266.22 300.75"></polygon><path class="cls-1" d="M280.11,303.65l-.68-.3-.59-.07-.38-.15H277l-1.57-.45-1-.3-.3-.44-.52.07-.67-.07-.75-.15-.9-.22-.67-.23-.52-.15-.75-.07-.59-.08-.23-.37-.67-.3-.75.08-.22.52.3.37.67.08.67-.15s.6.15,1,.22a4.13,4.13,0,0,0,.75.08,1.82,1.82,0,0,0,.52.29,3.37,3.37,0,0,1,.75.45s0,.07.45.22.07.23.74.3.3.15.75.15a2.63,2.63,0,0,1,.75,0c.59.08,1,.15,1,.15l.37.15.52.22.38.08a8.16,8.16,0,0,0,1.27.07c.59,0,.44-.07.82.08s.15.07.67.29a2.18,2.18,0,0,0,.75.23l1.12.07Z"></path><path class="cls-1" d="M221.24,310.48l-.64-1.39-.83-.45-1.34-.22-1.49-.45-1.12-.45-1.57-.37-.75-.74v-1.05l-.3-.89-.59-.74-.82-.67-.45-1.12,1,.3.52-.08.3-.44.45-.38.74.15.75.89.6.75.74.45.45.07-.15-2.75.68.89.74.89,1,.75.67.59v-2.53l.9.52.82,1,.9.67.59.6.23-1.34.22-1.27.9.67.9.75.52.44.45.6.82.52-.08-1.27v-2l.9.45.52.67.75.67.89.67.6.74.45-.67L231,303v-1l.89.82.82.82.67.89.53.45.74.44.08-.89-.45-.82-.15-1.41,1,.67.89,1,1,.75.75.59h.45l-.3-1,.15-1.49.67.67.67.9.45.74.52.52.82.3.3-1-.15-1.49.83.3.59,1,.67.74.83.6.22-.75-.22-.89v-.89l1.27,1.19.67,1,.52.52.67.52.15-.82-.15-1v-1l.75.9.75.52.74.52.37.45.53.15.07-1.05-.15-1v-.53l.6.6.75.74.89.75.53.37.37.3.37.15v-1l-.22-1.12,1,.6.68.82.52.3.67.52.15-.82-.15-1.12.6.67.59.45.75.45.38.14-.08-.74v-1.12l1,.82.75.67.74.37.3-.67-.15-1,.68.59.74.52.75.38.67-.08.08-.52.82.37.37.52.6.3.22-.52.3-.37.37.22.3.37.3-.59.3-.37.75.07.37.37h.37l.45.37,1.12.15a1.89,1.89,0,0,1,.82-.29h.9l.75.14s.37-.52.82-.22a4.62,4.62,0,0,1,.59.45l.45-.37.67.44.53-.37.37-.3.75.3a1.47,1.47,0,0,0,.89-.22l.38-.52.59.59.9.37h1l.53-.15h.37l.37-.52h-.89l-.45-.22h-.75l-.52.07-.37-.14-.45-.3-1.05.15-.37.29-.82-.29-1-.23-.82-.22-1.72-.15-1.94-.07-1.87-.15-1.49-.45h-2.84l-1.64-.07-1.72-.23L261,304l-1.34-.08-2.09-.07-2-.15-1.72-.15-1.34-.3-1.42-.14-1.19-.23-1.65-.07-1.57-.08-1.71-.22-1.72-.22-1.87-.23-1.42-.15-1.79-.22-2.76-.22-2.24-.15-2.31-.3-2.32-.22-2.69-.15-2-.23-2.54-.15-2.39-.07-2.39-.15-2.54.08h-2.54l-1.49-.08-1.42-.22-.45.44-.52.6-.15.82v1l-.22.74-.6.67-1.12.52H204.1l-.75-.52-.45-.74-.6-1v-.9l.08-.59-1-.08-.15.9.15,1.34.45,1.26.82.9.67.52.9.44.9.08H206l1-.52.9-.52.3-.75.22-.74.37-.6.23-.6.52-.52H210l.45.75.3.89.37.9.53.67.37.22.22.82.3.89.45.6.52.45.9.14,1.19.45,1.27.37,1,.38,1.34.37,1.05.52Z"></path><path class="cls-3" d="M177.83,262.67l1.4-.87,1.75-.17,1.93-.18,2.11-.35,1.57-.7,1.41-.52,1.75-1.05,1.23-1.4.52-1.05.88-.17h1.75l2.11-.53,1.57-1.05,1.06-2.1,1.22.18h3.16l1.58-1.05,1.4-1.92,1.4-1.05,1.23.7,1.4.17h1.4l1.41-.52,1.4-.88.7-1.4,1.23.88,1,.7,1.58.52,1.4-.35,1.23-.87.7-1,1,.7,1.75.87h1.4l1.58-.17,1.4-.18,2.11-1.22,1,1,1.4.52h1.58l1.58-.35,1.4-.52,1.23.7.87,1,1.23.7,1.58.52,1.4.17,1.05-.34h.88l.88.17,1.22.87,1.23.35.88-.52h1.4l1.05,1,1.05.17h1.93l1.4-.52.88,1.05,1.05.87,1.58.88H263l1.05-.88.88.88.87.7a6.18,6.18,0,0,0,1.76.69l1.22-.34.88.87.88.52.87.53h1.23l2.45-.87,1.76-.88,2.1-1.05,2.1-.52h1.41l.7,1.22-.35,1.23-.7,1.57-.18,1.05.53,1.4,1.57.87,1.76.53h2.45l3.68-1.05,3.16-1.05,3.15-1.75,3.16-1.92,2.1-1.4,2.46-1.23,2.45-.7h4.91l2.45.18,2.46.52,1.93.53-3,1.57-2.81,1.05-2.8,1.22-1.93.53-1.4,1.22-1.58,1.58-1.23,1.57-1.23,2.45,1.41,1.22,1.4,1.75,1.23,1.75.52,1.57,1.05.53-2.1.35-2.1-.53-2.63-.87-2.28-1.4-2.28-1.22-3-1.05,1.89-.82,1.57-.67,1.19-1,2.17-1.79,1.79-1.64,1.57-1.49,1.49-1.86,1.94-1.71,1.2-1.12,1.86-.82-1.86.52-1.42.82-1.72,1-1.34,1-1.57,1.34L302,261.51,300,263.3l-1.94,1.49-2.84,1.41-1.65.53-1.79.22-1.42-.08-1.12-.14-1-.15h-.67l.52,1,.75.52.75,1,.59.53.3.81-.22.6-.6.3-1.64.3-2.69-.15-2.46-.3-1.79-.52-2.1-.9-1.49-.44-1.57-.08-1.34.08h-2.46l-.68.52.38,1.19.52,1,.22.45-.22.44-1.72-.37-2.31-.89-1.8-.68-1.86-.66-1.72-.6-.89-.22-.9.15-.6.37-.3.37-.82-.37-1-.37-1,.22-.9.52-.59.59-.68-.52-1.94.9-2,.15h-1.79l-1.95-.38-1.41-.22-1.65.22-1,.08-1.05-.82-1.57-.22h-1.19l-.82.59-1.12.75-.75-.53-1-.74h-2.54l-1,.52-.75.45-1.12-.75-1.34-.59-1.05-.15-1.19.07-1,.45-.45.37-.15-.07-.9-.45-1.12-.52-.74-.67-.82-.22-1.28-.38-.67-.89-.82-.45-1.34-.22-1.5-.45-1.11-.44-1.57-.38-.75-.74v-1l-.3-.9-.6-.74-.82-.67-.45-1.12,1,.3.52-.08.3-.44.44-.37.75.14.75.9.6.74.74.45.45.07-.15-2.75.67.89.75.9,1,.74.67.6v-2.54l.9.52.82,1,.9.67.59.6.23-1.34.22-1.27.9.67.89.75.53.44.44.6.82.52-.07-1.26v-2l.9.44.52.67.75.67.89.67.6.75.45-.67-.08-.9v-1l.9.82.82.82.67.89.52.45.75.45.08-.9-.45-.82-.15-1.41,1,.67.9,1,1,.74.75.6h.44l-.29-1.05.15-1.48.67.67.67.89.45.74.52.53.82.29.3-1-.15-1.49.82.29.6,1,.67.75.82.59.23-.74-.23-.9v-.89l1.27,1.19.67,1,.53.52.67.52.15-.82-.15-1v-1l.75.89.74.52.75.52.37.45.52.15.08-1-.15-1v-.52l.6.59.74.75.9.74.52.37.38.3.37.15v-1l-.22-1.11,1,.59.67.82.52.3.68.52.15-.82-.15-1.12.59.67.6.45.75.45.37.15-.07-.75v-1.11l1,.81.75.67.74.38.3-.67-.15-1,.67.59.75.53.75.37.67-.08.07-.52.82.37.38.53.59.29.23-.52.3-.37.37.22.3.38.3-.6.3-.37.74.07.38.37h.37l.45.38,1.12.15a1.85,1.85,0,0,1,.82-.3h.9l.74.15s.37-.52.82-.23a4.44,4.44,0,0,1,.6.45l.45-.37.67.45L276,265l.38-.3.74.3a1.42,1.42,0,0,0,.9-.22l.37-.52.6.59.9.38h1l.52-.15h.38l.37-.52h-.89l-.45-.23h-.75l-.52.08-.38-.15-.44-.3-1.05.15-.37.3-.82-.3-1-.22-.83-.23-1.71-.15-1.94-.07-1.87-.15-1.49-.45h-2.84l-1.64-.07-1.72-.23-1.12-.22-1.35-.07-2.09-.08-2-.15-1.72-.15-1.34-.29-1.42-.15-1.2-.23-1.64-.07-1.57-.07-1.72-.23-1.71-.22-1.87-.23-1.42-.14-1.79-.23-2.76-.22-2.24-.15-2.32-.3-2.31-.22-2.69-.15-2-.22-2.54-.15-2.38-.08-2.39-.15-2.54.08h-2.54l-1.49-.08-1.42-.22-.45.45-.52.59-.15.82v1l-.23.75-.59.67-1.12.52h-1.35l-.74-.52-.45-.75-.6-1v-.89l.08-.6-1.05-.07-.15.89.15,1.34.45,1.26.82.9.67.52.9.45.89.07h.9l1-.52.89-.52.3-.75.23-.74.37-.6.23-.59.52-.52h.52l.45.74.3.89.37.9.52.67.38.22.22.82.3.9.45.59.52.45.9.15L215,267l1.27.38,1.05.37,1.34.37,1,.52,1,.75,1.28.82.89,1.19.75,1,.15,1.12.07.74-1.27-.15-2.31-.29-2.24-.82-3.14-1.27-1.42-.82-1.57-1-.89-.67-1-.75-.9-.22-.82.15-.67.07h-.82l-1.05-.67-.52-.74-.67-.08-.75.38-1,.37h-1.27v.07l-1.35-.22L199,267.4l-1.34-.3-1-.37h-.9l-.82.14-.75.23-.89.15-1.2-.23-1-.44-.67-.38-.9-.37-.89-.07-.6.37.22,1,.15.74-.15.45-1.64-.15-1-.74-.38-.9-.74-.89-.82-.52-.83-.15-1.27.07-1.11-.3-.9-.14-.82-.53-.53-.74Z"></path><path class="cls-1" d="M224.47,257.71l-3.21-3,.08,2.16.37.67a2.62,2.62,0,0,0,.9.15c.52,0,1.86.07,1.86.07"></path><path class="cls-1" d="M220.59,257.42l-2.91-2.91.07,1v.67l.15.89a.65.65,0,0,0,.6.3,13.54,13.54,0,0,1,2.09.08"></path><polygon class="cls-1" points="217.31 257.19 214.62 254.36 214.77 255.03 214.77 255.93 214.92 256.67 215.74 257.12 217.31 257.19"></polygon><path class="cls-1" d="M214.69,257l-1.34-1.12-1.72-1.34-.07.67.07.82.45.6a1.15,1.15,0,0,0,.89.44,8.41,8.41,0,0,0,1.72-.07"></path><polygon class="cls-1" points="211.22 256.9 210.77 257.35 209.35 257.35 208.15 257.27 207.11 257.2 206.14 257.49 204.79 257.57 203.6 257.57 202.33 257.12 203.23 256.15 204.57 255.19 206.44 254.37 207.85 253.69 209.35 253.25 210.54 253.17 211.89 253.17 212.86 253.4 212.86 253.99 212.19 254.44 211.37 254.59 210.62 254.81 209.72 254.81 208.97 254.96 209.12 255.48 210.02 256.08 211.22 256.9"></polygon><path class="cls-1" d="M192.29,260.4a1,1,0,1,1-1,1,1,1,0,0,1,1-1"></path><path class="cls-1" d="M189.16,259.87l.52.82.52-.59.82-.45,1-.37,1-.08.67.3.67.75.3,1-.15,1v1l.08.82.67.74.6.67.44.82.6-.15-.07-1-.53-1.05V263l.23-1.26.3-1,1-1.27,1-1.12,1.2-1,1.19-1,1.57-1,4-2.09,1.64-.52,2-.6,2.46-.52,2.17-.37,2.53-.22,2.47-.15,2.69.22,2-.07h1.49l2.69.29,1.87.08,2.24.22,2.24.3H237l1.34.22,1.49.08,2.17.29,1.79.3,1.72.23,1.72.22,1.79.3,2.39.3,1.86.44,1.65.45,1.49.45,2.17.37,1.27.45,1.64.52,1.19.22,1.12.3,1.27.22,1.12.37a3.47,3.47,0,0,0,.9.3l1.19.23.9.14,1,.3.9.15-.9-.59-.6-.3-.3-.52-.22-.45-.45-.22-.75.07-.74.22h-.75l-.6-.22-.37-.37-.45-.52-.3-.52-.37-.23-.6.15-.37.3h-1.57l-1-.37-.82-.53-.75-.52-.52-.37-.67-.37-.67.52-.6.45-.6-.08-.3-.59-.89-.15-1-.45-.6-.52-1-.74-.37-.3h-.53l-.22.44.07.75-.37.3-.67-.15-.67-.38-1.35-1-1.12-.6-.67-.52-.6.6-.37.52-.67.07H244l-.82-.44-1-.83-1.12-.66-1-.45-.67-.37-.6-.15-.45.37v.6l-.15.52-.6.29-1.12-.29-1.26-.45-1.27-.67-1.12-.37-.75-.23-1.12-.07-.52.22v1.19l-.38.23-.67-.08-1-.22-1-.15-1-.37-1-.37-.82-.3-.74-.3-.75-.07-.23.52v.59l-.29.38h-.75l-.67-.23-1.35-.15-1-.22-1.34-.3-.82-.07-.82.15-.68.59-.59.82-.6.52-.6.08-.74-.15h-1.12l-1.05-.23-.75-.15-.74-.07-.75-.15-.82.37-.08.82-.14.67-.45.52-.67.45-1,.08-.89-.08-.52.08-.53.44-1,.3-.9.08-.82-.45-.75-.08-.52.45-.07.82-.23,1-.52.67-1,.45-1.87.29L195,257l-.75-.22-.67-.08-.37.37-.45.38h-1.19l-1.12,1.19-.6.74s-.52.67-.67.52"></path><polygon class="cls-1" points="216.34 253.02 215.74 252.57 214.69 252.43 213.72 252.43 213.27 252.95 213.42 253.62 214.17 253.84 215.29 253.84 216.11 253.54 216.34 253.02"></polygon><path class="cls-1" d="M216.63,252.43l.45.67.67.59a9.79,9.79,0,0,0,1.2.15H221a12.34,12.34,0,0,0,1.72,0c.52-.07,2.16-.15,2.53-.15s2.54.23,2.54.23,2.09.14,2.92.14,2.91.15,2.91.15l2.83.3,3.74.45,3.28.67L247,256s2.61.6,3,.6,2.92.37,2.92.37l.37-.37.52.44,1.5.38,1.27.15.59.37.75.07,1-.22.83.15s0,.22.44.37a4,4,0,0,0,1,.15,3.4,3.4,0,0,1,1,.3l.44-.67-1.19-.52-1.42-.23-1.64-.59-1.2-.23-1.27-.3-1.42-.22-1.12-.44-.67-.15-.74.07-.75.3-.37-.6L250,255l-.82-.15-.9.37-.52-.52-1.27-.37-1.42-.3h-1l-.37.22-.45-.44-.67-.23-1-.22h-.75l-1-.22L239,253l-.44-.23-.23.53h-.52l-.6-.15-.6-.52-1.12-.08-3-.3-2.47-.37-1.64-.07-1.57-.08-1.94.08-1.87.07-1.56.15-1.35.07-1.27.23-1.19-.15Z"></path><polygon class="cls-1" points="232.39 258.53 230.3 256.89 229.48 255.78 228.88 255.33 229.1 256.67 229.25 257.27 227.39 255.93 226.12 255.11 224.92 254.21 225.44 256.23 225.59 257.19 225.74 257.79 228.21 258.46 229.7 258.76 231.04 258.76 232.39 258.53"></polygon><path class="cls-1" d="M232.09,254.81l1.12,3.65h1l1,.15,1.12.22.74.08,1,.29a2.87,2.87,0,0,0,1,.23c.45,0,1.79.07,1.79.07l1.49.37,1.35.15,1.42.15.82.08h2.39l.22-.67-.9-.82-.89-.82-.67-.82-.67-.67.07,1,.15.81.22.83-1.71-1.72-1-.67-.82-.74.45,2.83-1.64-1.64-1.27-.82-1.12-.89.37,1.19.15.59.45.9-1.57-1.27-1.19-.89-1-.6-.82-.45.59,1.2.3.89.08.52h-.82l-1-.74-.67-.9Z"></path><polygon class="cls-1" points="288.61 264.42 287.87 263.97 287.42 264.27 287.42 264.79 288.09 264.94 288.61 264.42"></polygon><polygon class="cls-1" points="286.6 264.71 286.22 264.42 285.48 264.19 285.1 264.64 285.18 265.24 286.22 265.24 286.6 264.71"></polygon><polygon class="cls-1" points="284.5 265.01 284.06 264.64 283.16 264.49 282.79 264.79 282.71 265.38 283.16 265.46 283.91 265.46 284.5 265.01"></polygon><path class="cls-1" d="M249,257.19l.22.82.15,1.12.23,1.19,1.49.3,1.57.15,1.49.3,1.87.29,2.61.23,1.87.07H262l1.2.15,1.19.15,1.05.15.82-.15,1.56.22.9.08,1.05.3a4.46,4.46,0,0,0,1.34.29c.6,0,1.34.08,1.34.08h1s.9-.08,1.34-.08a5.25,5.25,0,0,1,1.05,0c.37.08.82.15,1.34.23a6,6,0,0,1,1,.22l1.35.07.59.08-1.49-.52-1-.08-.9-.29-1.19-.15h-1.27l-.52-.08-.9-.07-.74-.08-.45-.15-.6-.29-.6-.23-.59-.3v.53l-.23.44-.37-.15-.37-.59-.38-.37-.45-.08-.15.6-.44-.52-.53-.15-.59-.3-.08.37.08.52-.68-.44-.52-.38-.9-.52.08.67.6.82-.82-.22-.6-.23-.52-.52-.45-.74-.3.59v.53l-.45-.23-.67-.44-.67-.6L260,259l.08,1.12.45,1.11-1.12-.89-.82-.6-.75-.74-.82-.45.15.9.07.67.23.52.07.37-.67-.37-.67-.82-.67-.67-.83-.6-.59-.22.44.89.15.82h-.44l-.53-.74-.74-.6-.45-.59-.9-.45.23.75.15.66.22.82-1.12-.74-.67-.45-.45-.52Z"></path><polygon class="cls-1" points="265.62 259.13 265.46 258.68 264.72 258.38 264.05 258.24 263.08 258.09 262.63 258.16 262.33 258.76 262.93 259.35 263.75 259.43 264.72 259.43 265.62 259.13"></polygon><path class="cls-1" d="M279.5,262l-.67-.29-.6-.08-.37-.15h-1.49l-1.57-.44-1-.3-.3-.45-.52.08-.67-.08-.75-.15-.9-.22-.67-.22-.52-.15-.75-.08-.6-.07-.22-.38-.67-.29-.75.07-.22.52.3.38.67.07.67-.15s.6.15,1,.22a4.06,4.06,0,0,0,.75.08,1.67,1.67,0,0,0,.52.3,3.86,3.86,0,0,1,.75.44s0,.08.44.23.08.22.75.29.3.15.75.15a2.57,2.57,0,0,1,.74,0c.6.08,1,.15,1,.15l.38.15.52.22.37.08a8.29,8.29,0,0,0,1.27.07c.6,0,.45-.07.82.08s.15.07.68.3a2.25,2.25,0,0,0,.74.22l1.12.07Z"></path><path class="cls-1" d="M220.63,268.86l-.64-1.39-.82-.45-1.34-.22-1.5-.45-1.12-.44-1.56-.38-.75-.74v-1l-.3-.9-.6-.74-.82-.67-.45-1.12,1,.3.52-.08.3-.44.44-.37.75.14.75.9.6.74.74.45.45.07-.15-2.75.67.89.75.89,1,.75.67.6v-2.54l.9.53.82,1,.9.67.59.6.23-1.34.22-1.27.9.67.89.75.53.44.44.6.82.52-.07-1.26v-2l.9.44.52.67.75.67.89.67.6.75.45-.67-.08-.9v-1l.9.82.82.82.67.89.52.45.75.45.08-.9-.45-.82-.15-1.41,1,.67.9,1,1,.74.75.6h.44l-.29-1,.15-1.5.67.68.67.89.45.74.52.53.82.29.3-1-.15-1.48.82.29.6,1,.67.75.82.59.23-.74-.23-.9v-.89l1.27,1.19.67,1,.53.52.67.52.15-.82-.15-1v-1l.74.89.75.52.75.52.37.45.52.15.08-1-.15-1v-.52l.6.59.74.75.9.74.52.38.38.29.37.15v-1l-.22-1.11,1,.59.67.82.53.3.67.52.15-.82-.15-1.12.59.67.6.45.75.45.37.15-.07-.75v-1.12l1,.82.74.68.75.37.3-.67-.15-1,.67.59.75.53.75.37.67-.08.07-.52.82.38.38.52.59.29.23-.52.3-.37.37.22.3.38.3-.6.3-.37.74.07.38.38h.37l.45.37,1.12.15a1.85,1.85,0,0,1,.82-.3h.9l.74.15s.38-.52.82-.23a4.44,4.44,0,0,1,.6.45l.45-.37.67.44L276,265l.38-.29.74.29a1.42,1.42,0,0,0,.9-.22l.37-.52.6.59.9.38h1l.52-.15h.38l.37-.52h-.9l-.44-.23h-.75l-.52.08-.38-.15-.44-.3-1.05.15-.37.3-.82-.3-1-.22-.83-.23-1.71-.15-1.94-.07-1.87-.15-1.5-.45h-2.83l-1.64-.07-1.72-.22-1.12-.23-1.35-.07-2.09-.08-2-.15-1.72-.15-1.34-.29-1.42-.15-1.2-.23-1.64-.07-1.57-.08-1.72-.22-1.71-.22-1.87-.22-1.42-.15-1.79-.23-2.76-.22-2.24-.15-2.32-.3-2.31-.22-2.69-.15-2-.22-2.53-.15-2.39-.08-2.39-.15-2.54.08h-2.54l-1.49-.08-1.42-.22-.45.45-.52.59-.15.82v1l-.23.75-.59.67-1.12.52h-1.35l-.74-.52-.45-.75-.6-1v-.89l.07-.6-1-.08-.15.9.15,1.34.45,1.27.82.89.67.52.9.45.89.07h.9l1-.52.9-.52.29-.75.23-.74.37-.6.22-.59.53-.52h.52l.45.74.3.89.37.9.52.67.38.22.22.82.3.89.45.6.52.45.9.15L215,267l1.27.38,1.05.37,1.34.37,1,.52Z"></path><path class="cls-4" d="M37.34,176a31.58,31.58,0,0,1,31,31.67l0,67.3H0V175.74Z"></path><path class="cls-4" d="M111.1,176A31.57,31.57,0,0,0,80.15,207.7l0,67.3h68.25V175.74Z"></path><rect class="cls-5" y="277.93" width="148.35" height="45.87"></rect><path class="cls-3" d="M73,323.79v-5.21l-1-.1-.7.9-.8.9-.81.8-1.2.6H61l-1.71-.4-1.3-1-1-.9c-.26-.37-.53-.74-.8-1.1s-.27-1-.4-1.5v-1.6c.23-.57.47-1.14.7-1.7l1-1.21,1.3-.9,1.6-.3,7.73-.1,1.3.1,1,.6.6.9.6.8.8.91c.14.23.27.46.4.7q0-4.61-.1-9.21l-1.1.1c-.13.47-.27.93-.4,1.4l-.9.9-.91.7-1,.4H66.78l-6.21-.1-1-.1-1.4-.5-.91-.9-1.3-1.6c-.07-.47-.13-.93-.2-1.4v-1.4c.17-.53.33-1.07.5-1.6l1-1.3,1-1,1.4-.6,8.43-.1,1.1.5,1,.7.81.9c.13.23.27.46.4.7l.2.5h1c0-.54-.06-1.07-.1-1.6-.57-.87-1.13-1.74-1.7-2.6L68.89,296l-2.11-1.6-2.3-.9-1.21-.6-1.3-.5-.6-.9v-1.3c0-.26.06-.53.1-.8v-.8l-.5-.5-.61.1h-.9l-.9.6-1,.5-.91.2-1.2-.3-1.2-.9-.51-1.2.51-1.3.3-1.1-.81-.8-1.4.4-.9.8-1.31.7-1.7.5-1.31-.3-.8-.7c-.13-.47-.27-.93-.4-1.4.13-.4.27-.8.4-1.2l1.31-1.1c.19-.27.4-.54.6-.8-.07-.3-.14-.6-.2-.9l-1-.1-1.5.6-1.91,1.1-2.21.9-1.6.3-1.71-.2-1.4-.8-1.1-1.6v-1.3l.6-1.51,1.4-.7,1.21-.5c.13-.6.26-1.2.4-1.8-.24-.26-.47-.53-.7-.8l-1.21-.5-1.4-.2-.81.6-1.1.1-1.4.3H30.87l-1.4-.4-1.81-.4-1.2-.7-.6-1.3c0-.47-.07-.93-.1-1.4.13-.5.26-1,.4-1.5l.9-1.1,1.4-1.1,1.51-.8c.13-.65.27-1.29.4-1.94H27.06l-1.6-1.76-1.51-.7c-.23-.41-.47-.8-.7-1.21,0-.43.06-.86.1-1.3l1-1.2a5,5,0,0,1,1.51-.5,6.12,6.12,0,0,0,1.4-.3l.5-.8-.3-1.2-.9-1-1.1-1.2-1.81-1.5-.6-1.8-.1-2.1c.06-.5.13-1,.2-1.5s.33-1.27.5-1.91c.27-.43.54-.86.8-1.3l1.51-1,1.7-.6,1.91-.2,1.2.5,1.21.4c.33.27.66.54,1,.8l1,1.2.91.81,1.1.9.6.6.8.2,1-.1.9-.6.7-1.2.6-1c.24-.16.47-.33.7-.5,0,0,.1-.2.91-.2a2.9,2.9,0,0,1,1.2.2l.8,1.1c.14.37.27.74.41,1.1.16.54.33,1.07.5,1.61,0,.3.06.6.1.9s.13.8.2,1.2l.4,1c.13.36.27.73.4,1.1l.6.4.9-.1,1-.9.7-1.4c.17-.37.33-.74.5-1.1l.6-.9a2.19,2.19,0,0,1,1.11-.7,6.88,6.88,0,0,1,1.3-.2,3.14,3.14,0,0,1,1.2.4l1,.8,1,1.2.3,1.4c0,.46.07.93.1,1.4-.13.63-.26,1.27-.4,1.9l-.7,2.5-.6,2-.81,1.4v1.1l.71,1.1,1.1.5.8-.9,1-.8a3.66,3.66,0,0,1,1.2-.7,7.35,7.35,0,0,0,.8-.2h1.21l.5.6.8.8c.07.44.13.87.2,1.31.07.72.13,1.44.2,2.16h-.9c-.27.88-.54,1.76-.8,2.64-.3.53-.61,1.06-.91,1.6l-.6,1.6c0,.43-.07.87-.1,1.3l.6.6,1.11-.6.6-1.4,1-.8h.9l.91.3.6.9v1.1c-.07.3-.14.6-.2.9s-.07.8-.1,1.2-.27.74-.4,1.1l-.71,1.5c-.16.4-.33.8-.5,1.2l-.3,1c0,.41-.07.81-.1,1.21a.92.92,0,0,0,1,.49l1.1-.19,1.2.1.9.6.41.7v.8l-.71.9-.4.7-.6,1.2v1l.3.7h.7l.71-.1.6-.1,1,.3a5.9,5.9,0,0,1,.9,1.3c-.06.4-.13.8-.2,1.2v2.2l.3,1.4c.07.44.14.87.2,1.3s.27.74.41,1.1.33.67.5,1l.8,1.11c.33.43.67.86,1,1.3q.06-6.36.1-12.71c-.13-.77-.26-1.54-.4-2.3-.16-.44-.33-.87-.5-1.3l-.6-3-1.31-1.9-.9-1.2-1.1-1.1-.1-1.1c.06-.33.13-.67.2-1l1.2-1,.8-.7a1,1,0,0,0,0-1.3l-.8-.7-1.8-.7-1-.8-.7-1.4.29-.69.36-.54.45-.18.71-.19s.36-.54.56-.54a2.84,2.84,0,0,0,.79-.4c.07-.18.14-.36.22-.54v-.66l-.3-.44-.54-.37-1.4-.27-1-.32-1-.22a3.54,3.54,0,0,1-.76-.4c-.1-.12-.44-.44-.44-.44l-.54-.51a1.85,1.85,0,0,1-.27-.62c0-.19.07-1,.07-1,.2-.23.4-.47.59-.71l.69-.27s.44-.32.61-.29a3.13,3.13,0,0,0,.81,0,4.17,4.17,0,0,0,.84-.35A1.44,1.44,0,0,0,67,255a.85.85,0,0,0,.17-.44,1.8,1.8,0,0,0-.1-.59,2,2,0,0,0-.29-.49l-.32-.25-1-.2-.74-.09-1.08-.08-.34-.17-1.11-.17-.76-.2-.76-.42-.59-.56-.52-.35-.76-1.42-.39-.93,0-1.65.73-1.11.79-.44.51-.19.76,0,1.08.2s.49.17.62.2l.56.07a3.24,3.24,0,0,0,.89,0,2.39,2.39,0,0,0,.56-.34,4.86,4.86,0,0,0,.56-.59,1,1,0,0,0,.13-.44v-.54c-.08-.19-.15-.36-.22-.55l-.4-.54-.61-.44-1.65-.54-1.05-.42-1.57-.73-.71-.67c-.44-.27-.87-.55-1.3-.83l-.62-.52-1.17-1.86c-.19-.39-.37-.78-.55-1.16s-.32-.75-.49-1.13c0-.38.07-.77.1-1.16l.27-.95.37-.79a2,2,0,0,1,.51-.49c.25-.12.55-.44.67-.49s.64-.32.78-.37a2.63,2.63,0,0,1,.67-.17h1.71a2.33,2.33,0,0,0,.54.12,2,2,0,0,1,.54.1c.2,0,.47.15.47.15a2.27,2.27,0,0,0,.54.09,1.6,1.6,0,0,0,.49,0,1.93,1.93,0,0,0,.54-.14c.25-.1.2-.15.37-.27a.79.79,0,0,0,.32-.49c0-.2-.08-1.09-.08-1.09a6.28,6.28,0,0,0-.27-.59c-.18-.49-.37-1-.56-1.47l-.39-1.08c-.06-.33-.12-.66-.17-1v-.87c.14-.28.28-.57.41-.85l.4-.69a3.36,3.36,0,0,1,.56-.42,6.33,6.33,0,0,1,.79-.22,2.93,2.93,0,0,1,.68.15,5,5,0,0,1,.59.39c.12.07.12.2.32.27s.44.17.57.2a.18.18,0,0,1,.15.11,1.28,1.28,0,0,0,.39,0,.9.9,0,0,0,.52-.19,1.62,1.62,0,0,0,.27-.35.85.85,0,0,0,.14-.49,2,2,0,0,0,0-1c-.16-.62,0,0,0,0a21.32,21.32,0,0,0-.5-3.22,10.21,10.21,0,0,1,.22-3.95c.22-.35.73-1.82,1.17-2.52s1-1,1.39-1.59c.39-.16.82-.37,1.21-.53s1-.27,1.46-.43a3.56,3.56,0,0,1,1.87.16c.72.33.83.2,1.13.41s.8.33,1,.5.77.35,1.13.6.68.55,1,.84c.25.48.51,1,.77,1.44s.5,1,.38,1.34c-.06.54.29,1.14.23,1.68.33.65.07,1,0,1.57l-.67,1.44c0,.45-.33.84-.36,1.29v1.34l.39,1.15c.25.29.51.58.77.86.35,0,.4.13.75.16l1.06-.38.67-.77,1.44-.58,1,.1.57.48.87,1.72c-.1.55-.2,1.09-.29,1.63l-.39,1.54c-.25.38-.51.76-.76,1.15s-.39.77-.58,1.15l-.67,1-.39,1.05c0,.26.07.51.1.77s.43.53,1,.48l.67-.39,1.25-1,.48-.28,1.06-.67s-.19-.19.57-.19h1.35l.77.19c.19.22.59.18.78.41s.45.64.68.83,0,.39.08.58.37.45.41.67.14.7.23,1.05-.26.64-.26,1l-.77,1.44-.57.86c-.2.35-.39.7-.58,1.06L90.4,239c-.6.35-.85,1.12-1.45,1.47-.42.55-1.2.67-1.62,1.22-.74.41-1.11,1-1.84,1.45a11.24,11.24,0,0,1-1.06.88,1.52,1.52,0,0,0-.66,1c-.06.34-.06.6.19.77a2.71,2.71,0,0,0,.72.13,1.37,1.37,0,0,0,.73-.31l1.34-.48,1.16-.39h1l1.15.2.58.67c.09.28.19.57.29.86s.12.57.19.86l-.48,1.25-.68,1.24-1,1.25-.86.67-1.44.77-1.44.86-1.35.57-1.25.48-1.15.48-.29.58V256l.86.19h.58l1.06-.19h.48a3.2,3.2,0,0,1,.77,1.15v.57c-.07.19-.13.39-.19.58a9.36,9.36,0,0,1-.68.76l-.86.39-.48.38-1.54.77-.67.28-.87.39-.48.29a2.25,2.25,0,0,1-.67.57,3.85,3.85,0,0,0-.67.48c0,.32-.07.64-.1,1,1.25.38,1,.38,1.54.38H80l.77.1c.48.38.48-.1.76.67a5.15,5.15,0,0,1,.29.86v1.15l-.48.58-.48.57-1.15.48-1,.48-.58.58a1.62,1.62,0,0,0-.2.79c.19.28.49.46.68.75.67.17.56.77.91,1.15,0,.22.11.88.11,1.1-.19.26-.2.8-.4,1.06s-.19.4-.28.66-.49.7-.71,1.05-.46.57-.65.89-.31.06-.51.25c-.46-.13-.6.38-.83.62s-.23.43-.33.59l-.29.67c-.13.29-.25.58-.38.86a17,17,0,0,0-.29,1.92c0,.48-.1.29-.1.77v1.63l-.19,2.2.39,11,1.05-.67.68-1.05.67-1.06.58-1.15.57-1.05.67-1.25.29-1.72v-2.59c0-.35.07-.7.1-1.05l.67-.48,1.35.28h.57l.87-.28.19-.48.1-.67-.2-1.06c-.12-.29-.25-.57-.38-.86l-.67-.67-.58-.48c-.13-.26-.26-.51-.38-.77s-.07-.57-.1-.86V279l.58-.58,1.15.1a2,2,0,0,0,.86.48,10.84,10.84,0,0,1,1.06.29s.1.48.67,0,.68.09.68-.67.29-.48-.1-1l-.67-.86-.48-.67-.77-1.35c-.19-.48-.39-.95-.58-1.43l-.48-1.44v-1.15c.07-.29.13-.58.19-.86l.87-.68,1.06-.09,1.15,1c.26.28.51.57.77.86,0,0-.19.48.67.57s.48.68,1.25.1a1.6,1.6,0,0,0,.77-1.15l-.1-.77-.57-1.24c-.32-.45-.64-.9-1-1.34L87,265.73c-.2-.35-.39-.7-.58-1.05L85.5,263l-.09-1.43c.06-.55.13-1.09.19-1.63l.77-1.25,1.44-.38,1.25.29,1.15.95c.23.26.45.52.68.77l1.15.67h.77l.57-.29.39-1.63c-.07-.35-.13-.7-.19-1-.2-.57-.39-1.15-.58-1.73,0,0-.19-1.34-.19-1.82s-.1-1.82-.1-1.82v-1.91a6.06,6.06,0,0,1,.19-2.11c.29-.58.77-1.92.77-1.92l.87-1,1-.67,1-.39H97.8l.68.77c.12.32.25.64.38,1v3.06l.39,1.15,1.24.39s.2.28.68-.1a2.51,2.51,0,0,0,.67-.77l.48-.76a4.88,4.88,0,0,1,.38-.77,3.64,3.64,0,0,0,.39-1.15,3.42,3.42,0,0,1,.19-1c.19-.57.39-1.34.39-1.34l1-1.25.77-.86,1.15-1,1.54.2.48.76v2.69l.38.57c.58,0,.39.38,1.15-.19s1.35-1.05,1.35-1.05c.19-.26.38-.52.58-.77l1-1a10.14,10.14,0,0,1,1.05-.77,11.63,11.63,0,0,1,1.06-.67,7.16,7.16,0,0,0,1.15-.76s-.19-.2.49-.29a8.93,8.93,0,0,1,1.63-.1h1.25c.48,0,.38-.19.86,0a7.29,7.29,0,0,1,1.16.67,1.61,1.61,0,0,1,.67.29,4.78,4.78,0,0,1,1,1.15l.68,1,.09,1.72v1.25a8.45,8.45,0,0,1-.19,1.34l-.58,1.06c-.22.51-.44,1-.67,1.53l-1,1.34c-.19.38-.38.77-.58,1.15a.88.88,0,0,0-.67.77,14.4,14.4,0,0,1-.29,1.44c.1.28.2.57.29.86l1.35.48.67-.19,1.92-.1.48.58.48.86c-.09.45-.19.89-.29,1.34s-.44.7-.67,1.05l-.48.77-.67,1-1.35.67-1.63.29-1.15.29-1.44.67-.68,1.05.58.86a8.44,8.44,0,0,0,1.35.19,9.91,9.91,0,0,1,1.15.1l1.15.38.87.48.76.67c.2.29.39.58.58.87,0,.35.06.7.1,1.05s-.2.64-.29,1l-.48.77-.67.67-1.06.57-1,.39-.87.28-1.53.1-1,.19-.77.19-1.25.1h-4s.19.1-.48.1h-1.35l-.67.19-.48.86-.09.57.48.58c.67.19,2.11.67,2.11.67h.86l.77.29,1.16.57c.06.35.12.71.19,1.06s.06.64.1,1c-.17.31-.33.63-.48.95l-1.16,1.06-1.63.86a4.76,4.76,0,0,1-1.35.38H107l-1.25-.67-1.92-.86-1.06-1-1.63-.38H99.82l-1,.38v.86l.48.68.87.47a3.8,3.8,0,0,1,1.05.87c.1.25.2.51.29.76v.87l-.48.76-.86.39-.77.28H98.38l-1-.28-.87-.58-1.15-.76-1.15-.39-.58-.29H92s-.48-.38-.48.39v1.44l.48.47,1,.68c0,.28.06.57.1.86s-.13.57-.2.86l-.48.38-.48.48-.77.29H89.92l-.86-.38-.67-.19-1.16.09v2.3l-.28.77-.68.77-1.63.48-1.25.19-1.15.48-1.16.57-1.34.86-1.44,1.06-1,.86-.58.86-.67,1L75,300.53c0,.38-.06.76-.1,1.15v.76l.87-1,1-1.15,1.15-1.24,1.16-.58,1.44-.09a6.9,6.9,0,0,0,1.15-.1,11.65,11.65,0,0,1,2,.1h2.5l1,.48,1.15.76.87,1,.67.77.48,1.15.09,1v1.44l-.09,1.15-.48.86c-.23.35-.45.7-.67,1.05l-1,.87-1.15.38-1.25.29H80.12l-1.25-.2-.86-.67-1-.67-.48-.57c-.19-.39-.39-.77-.58-1.15l-1.25-.39c0,3,.07,6.07.1,9.11h.77l.38-1.34.48-1.06.77-.76.87-.58,1.15-.38,1.15-.1,6.44.19,1.34.2,1.16.95c.29.42.57.84.86,1.25l.48,1.25.39,1.82c-.1.41-.19.83-.29,1.24l-.67,1.54-1,.86c-.32.38-.64.77-1,1.15l-1.24.48-1.83.38-6.05-.38L77.53,321c-.35-.39-.71-.77-1.06-1.15l-.38-.87-.87-.38c.1,2,.19,4,.29,6l-2.79.1C72.82,324.45,72.91,324.12,73,323.79Z"></path><path class="cls-6" d="M73,323.79v-5.21l-1-.1-.7.9-.8.9-.81.8-1.2.6H61l-1.71-.4-1.3-1-1-.9c-.26-.37-.53-.74-.8-1.1s-.27-1-.4-1.5v-1.6c.23-.57.47-1.14.7-1.7l1-1.21,1.3-.9,1.6-.3,7.73-.1,1.3.1,1,.6.6.9.6.8.8.91c.14.23.27.46.4.7q0-4.61-.1-9.21l-1.1.1c-.13.47-.27.93-.4,1.4l-.9.9-.91.7-1,.4H66.78l-6.21-.1-1-.1-1.4-.5-.91-.9-1.3-1.6c-.07-.47-.13-.93-.2-1.4v-1.4c.17-.53.33-1.07.5-1.6l1-1.3,1-1,1.4-.6,8.43-.1,1.1.5,1,.7.81.9c.13.23.27.46.4.7l.2.5h1c0-.54-.06-1.07-.1-1.6-.57-.87-1.13-1.74-1.7-2.6L68.89,296l-2.11-1.6-2.3-.9-1.21-.6-1.3-.5-.6-.9v-1.3c0-.26.06-.53.1-.8v-.8l-.5-.5-.61.1h-.9l-.9.6-1,.5-.91.2-1.2-.3-1.2-.9-.51-1.2.51-1.3.3-1.1-.81-.8-1.4.4-.9.8-1.31.7-1.7.5-1.31-.3-.8-.7c-.13-.47-.27-.93-.4-1.4.13-.4.27-.8.4-1.2l1.31-1.1c.19-.27.4-.54.6-.8-.07-.3-.14-.6-.2-.9l-1-.1-1.5.6-1.91,1.1-2.21.9-1.6.3-1.71-.2-1.4-.8-1.1-1.6v-1.3l.6-1.51,1.4-.7,1.21-.5c.13-.6.26-1.2.4-1.8-.24-.26-.47-.53-.7-.8l-1.21-.5-1.4-.2-.81.6-1.1.1-1.4.3H30.87l-1.4-.4-1.81-.4-1.2-.7-.6-1.3c0-.47-.07-.93-.1-1.4.13-.5.26-1,.4-1.5l.9-1.1,1.4-1.1,1.51-.8c.13-.65.27-1.29.4-1.94H27.06l-1.6-1.76-1.51-.7c-.23-.41-.47-.8-.7-1.21,0-.43.06-.86.1-1.3l1-1.2a5,5,0,0,1,1.51-.5,6.12,6.12,0,0,0,1.4-.3l.5-.8-.3-1.2-.9-1-1.1-1.2-1.81-1.5-.6-1.8-.1-2.1c.06-.5.13-1,.2-1.5s.33-1.27.5-1.91c.27-.43.54-.86.8-1.3l1.51-1,1.7-.6,1.91-.2,1.2.5,1.21.4c.33.27.66.54,1,.8l1,1.2.91.81,1.1.9.6.6.8.2,1-.1.9-.6.7-1.2.6-1c.24-.16.47-.33.7-.5,0,0,.1-.2.91-.2a2.9,2.9,0,0,1,1.2.2l.8,1.1c.14.37.27.74.41,1.1.16.54.33,1.07.5,1.61,0,.3.06.6.1.9s.13.8.2,1.2l.4,1c.13.36.27.73.4,1.1l.6.4.9-.1,1-.9.7-1.4c.17-.37.33-.74.5-1.1l.6-.9a2.19,2.19,0,0,1,1.11-.7,6.88,6.88,0,0,1,1.3-.2,3.14,3.14,0,0,1,1.2.4l1,.8,1,1.2.3,1.4c0,.46.07.93.1,1.4-.13.63-.26,1.27-.4,1.9l-.7,2.5-.6,2-.81,1.4v1.1l.71,1.1,1.1.5.8-.9,1-.8a3.66,3.66,0,0,1,1.2-.7,7.35,7.35,0,0,0,.8-.2h1.21l.5.6.8.8c.07.44.13.87.2,1.31.07.72.13,1.44.2,2.16h-.9c-.27.88-.54,1.76-.8,2.64-.3.53-.61,1.06-.91,1.6l-.6,1.6c0,.43-.07.87-.1,1.3l.6.6,1.11-.6.6-1.4,1-.8h.9l.91.3.6.9v1.1c-.07.3-.14.6-.2.9s-.07.8-.1,1.2-.27.74-.4,1.1l-.71,1.5c-.16.4-.33.8-.5,1.2l-.3,1c0,.41-.07.81-.1,1.21a.92.92,0,0,0,1,.49l1.1-.19,1.2.1.9.6.41.7v.8l-.71.9-.4.7-.6,1.2v1l.3.7h.7l.71-.1.6-.1,1,.3a5.9,5.9,0,0,1,.9,1.3c-.06.4-.13.8-.2,1.2v2.2l.3,1.4c.07.44.14.87.2,1.3s.27.74.41,1.1.33.67.5,1l.8,1.11c.33.43.67.86,1,1.3q.06-6.36.1-12.71c-.13-.77-.26-1.54-.4-2.3-.16-.44-.33-.87-.5-1.3l-.6-3-1.31-1.9-.9-1.2-1.1-1.1-.1-1.1c.06-.33.13-.67.2-1l1.2-1,.8-.7a1,1,0,0,0,0-1.3l-.8-.7-1.8-.7-1-.8-.7-1.4.29-.69.36-.54.45-.18.71-.19s.36-.54.56-.54a2.84,2.84,0,0,0,.79-.4c.07-.18.14-.36.22-.54v-.66l-.3-.44-.54-.37-1.4-.27-1-.32-1-.22a3.54,3.54,0,0,1-.76-.4c-.1-.12-.44-.44-.44-.44l-.54-.51a1.85,1.85,0,0,1-.27-.62c0-.19.07-1,.07-1,.2-.23.4-.47.59-.71l.69-.27s.44-.32.61-.29a3.13,3.13,0,0,0,.81,0,4.17,4.17,0,0,0,.84-.35A1.44,1.44,0,0,0,67,255a.85.85,0,0,0,.17-.44,1.8,1.8,0,0,0-.1-.59,2,2,0,0,0-.29-.49l-.32-.25-1-.2-.74-.09-1.08-.08-.34-.17-1.11-.17-.76-.2-.76-.42-.59-.56-.52-.35-.76-1.42-.39-.93,0-1.65.73-1.11.79-.44.51-.19.76,0,1.08.2s.49.17.62.2l.56.07a3.24,3.24,0,0,0,.89,0,2.39,2.39,0,0,0,.56-.34,4.86,4.86,0,0,0,.56-.59,1,1,0,0,0,.13-.44v-.54c-.08-.19-.15-.36-.22-.55l-.4-.54-.61-.44-1.65-.54-1.05-.42-1.57-.73-.71-.67c-.44-.27-.87-.55-1.3-.83l-.62-.52-1.17-1.86c-.19-.39-.37-.78-.55-1.16s-.32-.75-.49-1.13c0-.38.07-.77.1-1.16l.27-.95.37-.79a2,2,0,0,1,.51-.49c.25-.12.55-.44.67-.49s.64-.32.78-.37a2.63,2.63,0,0,1,.67-.17h1.71a2.33,2.33,0,0,0,.54.12,2,2,0,0,1,.54.1c.2,0,.47.15.47.15a2.27,2.27,0,0,0,.54.09,1.6,1.6,0,0,0,.49,0,1.93,1.93,0,0,0,.54-.14c.25-.1.2-.15.37-.27a.79.79,0,0,0,.32-.49c0-.2-.08-1.09-.08-1.09a6.28,6.28,0,0,0-.27-.59c-.18-.49-.37-1-.56-1.47l-.39-1.08c-.06-.33-.12-.66-.17-1v-.87c.14-.28.28-.57.41-.85l.4-.69a3.36,3.36,0,0,1,.56-.42,6.33,6.33,0,0,1,.79-.22,2.93,2.93,0,0,1,.68.15,5,5,0,0,1,.59.39c.12.07.12.2.32.27s.44.17.57.2a.18.18,0,0,1,.15.11,1.28,1.28,0,0,0,.39,0,.9.9,0,0,0,.52-.19,1.62,1.62,0,0,0,.27-.35.85.85,0,0,0,.14-.49,2,2,0,0,0,0-1c-.16-.62,0,0,0,0a21.32,21.32,0,0,0-.5-3.22,10.21,10.21,0,0,1,.22-3.95c.22-.35.73-1.82,1.17-2.52s1-1,1.39-1.59c.39-.16.82-.37,1.21-.53s1-.27,1.46-.43a3.56,3.56,0,0,1,1.87.16c.72.33.83.2,1.13.41s.8.33,1,.5.77.35,1.13.6.68.55,1,.84c.25.48.51,1,.77,1.44s.5,1,.38,1.34c-.06.54.29,1.14.23,1.68.33.65.07,1,0,1.57l-.67,1.44c0,.45-.33.84-.36,1.29v1.34l.39,1.15c.25.29.51.58.77.86.35,0,.4.13.75.16l1.06-.38.67-.77,1.44-.58,1,.1.57.48.87,1.72c-.1.55-.2,1.09-.29,1.63l-.39,1.54c-.25.38-.51.76-.76,1.15s-.39.77-.58,1.15l-.67,1-.39,1.05c0,.26.07.51.1.77s.43.53,1,.48l.67-.39,1.25-1,.48-.28,1.06-.67s-.19-.19.57-.19h1.35l.77.19c.19.22.59.18.78.41s.45.64.68.83,0,.39.08.58.37.45.41.67.14.7.23,1.05-.26.64-.26,1l-.77,1.44-.57.86c-.2.35-.39.7-.58,1.06L90.4,239c-.6.35-.85,1.12-1.45,1.47-.42.55-1.2.67-1.62,1.22-.74.41-1.11,1-1.84,1.45a11.24,11.24,0,0,1-1.06.88,1.52,1.52,0,0,0-.66,1c-.06.34-.06.6.19.77a2.71,2.71,0,0,0,.72.13,1.37,1.37,0,0,0,.73-.31l1.34-.48,1.16-.39h1l1.15.2.58.67c.09.28.19.57.29.86s.12.57.19.86l-.48,1.25-.68,1.24-1,1.25-.86.67-1.44.77-1.44.86-1.35.57-1.25.48-1.15.48-.29.58V256l.86.19h.58l1.06-.19h.48a3.2,3.2,0,0,1,.77,1.15v.57c-.07.19-.13.39-.19.58a9.36,9.36,0,0,1-.68.76l-.86.39-.48.38-1.54.77-.67.28-.87.39-.48.29a2.25,2.25,0,0,1-.67.57,3.85,3.85,0,0,0-.67.48c0,.32-.07.64-.1,1,1.25.38,1,.38,1.54.38H80l.77.1c.48.38.48-.1.76.67a5.15,5.15,0,0,1,.29.86v1.15l-.48.58-.48.57-1.15.48-1,.48-.58.58a1.62,1.62,0,0,0-.2.79c.19.28.49.46.68.75.67.17.56.77.91,1.15,0,.22.11.88.11,1.1-.19.26-.2.8-.4,1.06s-.19.4-.28.66-.49.7-.71,1.05-.46.57-.65.89-.31.06-.51.25c-.46-.13-.6.38-.83.62s-.23.43-.33.59l-.29.67c-.13.29-.25.58-.38.86a17,17,0,0,0-.29,1.92c0,.48-.1.29-.1.77v1.63l-.19,2.2.39,11,1.05-.67.68-1.05.67-1.06.58-1.15.57-1.05.67-1.25.29-1.72v-2.59c0-.35.07-.7.1-1.05l.67-.48,1.35.28h.57l.87-.28.19-.48.1-.67-.2-1.06c-.12-.29-.25-.57-.38-.86l-.67-.67-.58-.48c-.13-.26-.26-.51-.38-.77s-.07-.57-.1-.86V279l.58-.58,1.15.1a2,2,0,0,0,.86.48,10.84,10.84,0,0,1,1.06.29s.1.48.67,0,.68.09.68-.67.29-.48-.1-1l-.67-.86-.48-.67-.77-1.35c-.19-.48-.39-.95-.58-1.43l-.48-1.44v-1.15c.07-.29.13-.58.19-.86l.87-.68,1.06-.09,1.15,1c.26.28.51.57.77.86,0,0-.19.48.67.57s.48.68,1.25.1a1.6,1.6,0,0,0,.77-1.15l-.1-.77-.57-1.24c-.32-.45-.64-.9-1-1.34L87,265.73c-.2-.35-.39-.7-.58-1.05L85.5,263l-.09-1.43c.06-.55.13-1.09.19-1.63l.77-1.25,1.44-.38,1.25.29,1.15.95c.23.26.45.52.68.77l1.15.67h.77l.57-.29.39-1.63c-.07-.35-.13-.7-.19-1-.2-.57-.39-1.15-.58-1.73,0,0-.19-1.34-.19-1.82s-.1-1.82-.1-1.82v-1.91a6.06,6.06,0,0,1,.19-2.11c.29-.58.77-1.92.77-1.92l.87-1,1-.67,1-.39H97.8l.68.77c.12.32.25.64.38,1v3.06l.39,1.15,1.24.39s.2.28.68-.1a2.51,2.51,0,0,0,.67-.77l.48-.76a4.88,4.88,0,0,1,.38-.77,3.64,3.64,0,0,0,.39-1.15,3.42,3.42,0,0,1,.19-1c.19-.57.39-1.34.39-1.34l1-1.25.77-.86,1.15-1,1.54.2.48.76v2.69l.38.57c.58,0,.39.38,1.15-.19s1.35-1.05,1.35-1.05c.19-.26.38-.52.58-.77l1-1a10.14,10.14,0,0,1,1.05-.77,11.63,11.63,0,0,1,1.06-.67,7.16,7.16,0,0,0,1.15-.76s-.19-.2.49-.29a8.93,8.93,0,0,1,1.63-.1h1.25c.48,0,.38-.19.86,0a7.29,7.29,0,0,1,1.16.67,1.61,1.61,0,0,1,.67.29,4.78,4.78,0,0,1,1,1.15l.68,1,.09,1.72v1.25a8.45,8.45,0,0,1-.19,1.34l-.58,1.06c-.22.51-.44,1-.67,1.53l-1,1.34c-.19.38-.38.77-.58,1.15a.88.88,0,0,0-.67.77,14.4,14.4,0,0,1-.29,1.44c.1.28.2.57.29.86l1.35.48.67-.19,1.92-.1.48.58.48.86c-.09.45-.19.89-.29,1.34s-.44.7-.67,1.05l-.48.77-.67,1-1.35.67-1.63.29-1.15.29-1.44.67-.68,1.05.58.86a8.44,8.44,0,0,0,1.35.19,9.91,9.91,0,0,1,1.15.1l1.15.38.87.48.76.67c.2.29.39.58.58.87,0,.35.06.7.1,1.05s-.2.64-.29,1l-.48.77-.67.67-1.06.57-1,.39-.87.28-1.53.1-1,.19-.77.19-1.25.1h-4s.19.1-.48.1h-1.35l-.67.19-.48.86-.09.57.48.58c.67.19,2.11.67,2.11.67h.86l.77.29,1.16.57c.06.35.12.71.19,1.06s.06.64.1,1c-.17.31-.33.63-.48.95l-1.16,1.06-1.63.86a4.76,4.76,0,0,1-1.35.38H107l-1.25-.67-1.92-.86-1.06-1-1.63-.38H99.82l-1,.38v.86l.48.68.87.47a3.8,3.8,0,0,1,1.05.87c.1.25.2.51.29.76v.87l-.48.76-.86.39-.77.28H98.38l-1-.28-.87-.58-1.15-.76-1.15-.39-.58-.29H92s-.48-.38-.48.39v1.44l.48.47,1,.68c0,.28.06.57.1.86s-.13.57-.2.86l-.48.38-.48.48-.77.29H89.92l-.86-.38-.67-.19-1.16.09v2.3l-.28.77-.68.77-1.63.48-1.25.19-1.15.48-1.16.57-1.34.86-1.44,1.06-1,.86-.58.86-.67,1L75,300.53c0,.38-.06.76-.1,1.15v.76l.87-1,1-1.15,1.15-1.24,1.16-.58,1.44-.09a6.9,6.9,0,0,0,1.15-.1,11.65,11.65,0,0,1,2,.1h2.5l1,.48,1.15.76.87,1,.67.77.48,1.15.09,1v1.44l-.09,1.15-.48.86c-.23.35-.45.7-.67,1.05l-1,.87-1.15.38-1.25.29H80.12l-1.25-.2-.86-.67-1-.67-.48-.57c-.19-.39-.39-.77-.58-1.15l-1.25-.39c0,3,.07,6.07.1,9.11h.77l.38-1.34.48-1.06.77-.76.87-.58,1.15-.38,1.15-.1,6.44.19,1.34.2,1.16.95c.29.42.57.84.86,1.25l.48,1.25.39,1.82c-.1.41-.19.83-.29,1.24l-.67,1.54-1,.86c-.32.38-.64.77-1,1.15l-1.24.48-1.83.38-6.05-.38L77.53,321c-.35-.39-.71-.77-1.06-1.15l-.38-.87-.87-.38c.1,2,.19,4,.29,6l-2.79.1C72.82,324.45,72.91,324.12,73,323.79Z"></path><path class="cls-7" d="M213.63.29a31.57,31.57,0,0,1,31,31.66l-.05,67.31H176.29V0Z"></path><path class="cls-7" d="M287.39.29A31.57,31.57,0,0,0,256.44,32l0,67.31h68.25V0Z"></path><rect class="cls-8" x="176.29" y="102.18" width="148.35" height="45.87"></rect><path class="cls-3" d="M213.66,59.62c1.4,0,2.53.52,2.53.92s-1.13.94-2.53.94-2.53-.54-2.53-.94S212.27,59.62,213.66,59.62Zm11.13-20.81,1.58-.13,1.89.06,1.14-.3a3.9,3.9,0,0,1,.88-.25A5.6,5.6,0,0,0,231.6,38a3.51,3.51,0,0,0,.89-.5c-.13.62-.26,1.23-.38,1.85s-.25,1.31-.38,2l-.88,2-1,1.78c-.51.72-1,1.44-1.52,2.15l-1.19,1.11-1.39.92-1,.49-1,.3.57-2.94c.17-.92.34-1.84.5-2.76s.09-1.6.13-2.4l.06-1.59A6.29,6.29,0,0,0,224.79,38.81Zm51.38,109.31c.38-1.29.76-3,1.13-4.28l1.71-4.42q1.29-2.07,2.56-4.14L283,132.8c.47-.65.95-1.29,1.42-1.93l1.71-2.21,1.42-2.21a8.61,8.61,0,0,0,2.28-1.93l-1.14-1.38-1.14-1.93-.24-2.79.15-2.73c.26-.71.52-1.42.79-2.12l.93-2.89,1.26-1.66c.31-.71.62-1.42.94-2.13.2-.55.41-1.11.62-1.67l.78-1.66c.16-.61.32-1.22.47-1.83L294.66,99c.11-.91.21-1.82.31-2.73V93.54c-.15-.8-.31-1.62-.46-2.42l-.63-1.67-.63-1.37v-.91l1.1-.15,1.41,1.52c.31.76.62,1.51.94,2.27l.93,1.52c.26.66.53,1.32.79,2,.31,1.27.62,2.53.94,3.79V92.33c-.11-1-.21-1.92-.32-2.88l-.15-1.82-.63-1.52-.78-1.52-1.1-.45h-.78l-.94.61-.47.91-1.88-1.52-3.13-1.52-3.13-1.36L282.61,80l-4.07-.6-3.91-.61-5,.15-4.06.3H262l-2,.46-3.44.3-4.07.46-4.54.15-4.06.61-3.76.15-3-.15-2.51-.61-2.34-.91-1.57-1.37-1.56-1.82c-.37-.6-.73-1.21-1.1-1.82l-1.25-2-1.09-1.67c-.32-.6-.63-1.21-.94-1.82l-.63-2-.63-.91-.62-1.21c-.1-.41-.21-.81-.31-1.22l-.63-1.66V61.08l1.25.31.94,1.36,1.1,1.06.93,1.06,1.26.91,1.72.91,1.72.61,1.09-.3.94-.76.63-1.06-.94-.91-1.88-.91-1.72-.76-2-.76-1.1-.76-1.25-.6-.94-.46-1.09-.76.93-.3,1.1.15,1.1.61,1.56.45,1.88.46,2,.3h1.25l1.1-.61,1.09-.91.63-.91.47-.91-14.08.46.15-1.06.63-1.37.31-1.06c.11-.35.21-.71.32-1.06l1.4-.31,1.57-.6,1.25-.76,1.57-1.21,2.34-2.28c.42-.61.84-1.21,1.25-1.82s.53-1.32.79-2c.41-.91.83-1.82,1.25-2.73.15-.71.31-1.42.47-2.13.1-.91.21-1.82.31-2.73.16-1.06.31-2.12.47-3.18V30.29c0-1.21-.1-2.43-.16-3.64s-.41-2.33-.62-3.49l-.63-3-.78-3c-.31-.65-.63-1.31-.94-2l-1.41-2.43c-.62-1-1.25-1.92-1.88-2.88l-1.56-1.36-1.25-.91-2.51-2,2.35,2.58,1.72,2c.42.66.84,1.32,1.25,2l.63,1.21c.16.35.31.71.47,1.06s.21.91.31,1.37l-1.25-.15-1.25-.91-1.57-1.07-4.06-2,1.87,1.52,1.72,1.21L227.85,16c.47.51.94,1,1.4,1.52l1.1,1.06.63,1.06.93,1.52-2.34-1.67-1.41-.91-2.5-1.52L223.78,16l-1.57-.61-1.25-.3-1.56-.3,2.66,1.82,2.5,1.51,3,1.82,1.57,1.82,1.72,2.28,1.41,2.28c.21.6.42,1.21.62,1.82s.21,1.41.32,2.12v1.82c-.06.5-.11,1-.16,1.52l-.78,1.06-1.41,1.06-2,.45h-1.57l-.94.16-1.41-.16L224.25,35c-.26-1.36-.52-2.73-.79-4.09L222.68,28c-.36-.86-.73-1.72-1.09-2.57-.37-1.12-.73-2.23-1.1-3.34l-1.41-3-1.56-2.57-2-2.28-2.19-2.43-1.72-1.51-2.19-2-2.19-1.06-3.44-1.06,3,1.82,1.72,1.21L210.16,11,212,12.39l1.41,1.67.63,1.21.94,1.52-.79-.3-2.34-1.07L210,14.67l-2-.46-1.56-.3-1.72.45,2.19.91,1.88.61,1.72,1.06,1.87,1.21,1.73,1.07.94.91,1.87,1.36-3.44-1.67-2.5-.91-2-.91-2-.45-1.57.15-1.87.3-1.1.31-1.25.45,3.13-.15,2.34.45,2.2.61,2.5,1.06,2.66,1.37,2.66,1.82L218,25.74c.41.86.83,1.72,1.25,2.58s.63,1.41.94,2.12l1.09,2v3.34l-1.72.3-1.72-.6-1.41-.76-1.4-.61-1.57-.61,1.25,1.22,1.41.76c.42.3.84.6,1.25.91l1.41.6,1.56.31.94.45v.76l-.46.91-1.41,1.06-2.2.61L215,40.45l-2-.3-1.88-.91-1.41-.61-1.4-.76-1.41-.76-1.1-.91.63,1.52,1.41,1.22,1.41,1.51,1.72.91,1.56.61,1.88.45,1.88.16h4.38l.78.15c0,.3.1.61.16.91-.11.5-.21,1-.32,1.52s-.41,1-.62,1.51l-.78,1.67c-.32.35-.63.71-.94,1.06s-.84.91-1.25,1.37l-2.2.3-2-.15-1.72-.46-1.57-.6L208,49l-1.41-.76-1.72-1.67c.06.51.11,1,.16,1.52l1.1,1.21.94.91,1.25.91,1.25.61,1.56.3h.79l.93.46v.75l-.78.31-.94.3-1.72.3-1.72.16L206.1,54l-2-.6-1.41-.61-1.87-.61-1.41-.76-1.1-.91,1.57,2.43L201.56,54c.62.36,1.25.71,1.88,1.06l2,.76,2.5.16h3l2.5-.61,2.66-.91,1.41-1.22,1.09-.3c.27.3.53.61.79.91v1.06c-.26.31-.52.61-.79.91-.47.81-.93,1.62-1.41,2.43L195,58.05c.1.71.21,1.41.31,2.12h1.41l1.72.31,1.56.15.94.15c0,.3.11.61.16.91l-.94.3-1.72.61-1.25.45-.63.76.47.76,1.56.46,1.57-.61,1.25-.76,1.57-.61,1.72-.15,2.66,1.82,2,1.82,3,3.34,2.51,4.1c.68,1.56,1.35,3.13,2,4.7v3.49c.11,1,.21,1.92.31,2.88l.48,2.88v5.61c.15.86.31,1.72.46,2.58s.21,1.72.32,2.58v1.21c.1.36.21.71.31,1.07.16.55.31,1.11.47,1.67l.78,1.66,1.25,1.67,1.41,1.52,1.57,1.67c.21,1.21.41,2.42.62,3.64.11.86.21,1.72.32,2.58.15.65.31,1.31.47,2l.78,2.43c.31.7.62,1.41.94,2.12.1,1.06.21,2.12.31,3.18v8.35l-.78,3.33c0,.76-.11,1.52-.16,2.28l-.63,3.64q-.3,2.81-.62,5.61h4.85l-.63-4.4c-.1-1-.2-1.92-.31-2.88.05-1.21.11-2.43.16-3.64s.31-2.43.47-3.64V130c-.06-1.11-.11-2.23-.16-3.34s-.1-2.22-.16-3.34v-2.73c.11-1,.21-1.92.32-2.88l.15-2.12c.16-.71.32-1.42.47-2.13.16-1.11.32-2.22.47-3.33.32.66.63,1.31.94,2-.16,1.21-.31,2.43-.47,3.64l.78,3.19c.27,1.06.53,2.12.79,3.18l.78,3.79v14.41c-.16.91-.31,1.82-.47,2.73-.16,1.07-.31,2.13-.47,3.19-.1.61-.35,1.35-.45,2,1.35.1,2.85.06,4.21.16l-.63-5.15c-.16-1.12-.31-2.23-.47-3.34v-4.1l.78-4.24v-4.25c.11-1,.21-1.92.32-2.88l.15-2.89c.05-.91.11-1.82.16-2.73l.15-2.88V112.5c.16-1,.32-2,.47-3l2.51-.3,2.81-.46,3.76-.76,3-.45h4.54s3-.15,3.76-.15a40,40,0,0,1,4.53,1.06l2.66,1.67,3.45,2.27,2.34,2.58,2.66,2.73c.53.81,1.05,1.62,1.57,2.43.62.66,1.25,1.31,1.88,2s1.14,1.42,1.72,2.12l-2.19,3.34-2.19,3c-.58.8-1.15,1.61-1.73,2.42q-1.25,1.83-2.5,3.64l-1.72,2.73c-.42,1-.84,1.92-1.25,2.89-.42.75-.84,1.51-1.25,2.27-.73,1.27-1.88,2.39-2.61,3.65,1.46,0,3.34.32,4.8.27.26-.76.52-1.8.78-2.55.57-1.37,1.15-2.73,1.72-4.1l2.35-4.4,1.88-3.64c.83-1.26,1.66-2.53,2.5-3.79l2.19-2.43.94-1.52,1.09-1.36c.16-.4.32-.81.47-1.21-.47-.71-.94-1.42-1.4-2.13-.53-1-1.05-1.92-1.57-2.88l-1.41-2.27L276.35,113l-.78-2.28-.78-2-.78-3.64q1.32,2.36,2.66,4.7l2.19,3.19,2.19,3.19,1.88,2.73L284,121c.42.5.84,1,1.25,1.52s.63,1,.94,1.51l.63.91-3.13,3.79-2.35,3.65c-.68.75-1.36,1.51-2,2.27l-2.51,4.1c-.57,1.11-1.14,2.22-1.72,3.33l-1.72,2.58c-.63,1.12-1.25,2.64-1.88,3.76Z"></path><path class="cls-9" d="M37.34.29A31.57,31.57,0,0,1,68.29,32l0,67.31H0V0Z"></path><path class="cls-9" d="M111.1.29A31.56,31.56,0,0,0,80.15,32l0,67.31h68.25V0Z"></path><rect class="cls-10" y="102.18" width="148.35" height="45.87"></rect><polygon class="cls-11" points="75.65 69.75 81.15 72.75 75.65 76.2 75.65 69.75"></polygon><polygon class="cls-11" points="85.06 85.83 91.78 89.18 85.06 93.05 85.06 85.83"></polygon><polygon class="cls-11" points="82.72 74.61 75.77 79.2 75.52 130.59 82.72 126.72 82.72 74.61"></polygon><polygon class="cls-11" points="101.12 90.45 85.06 99.24 85.06 125.36 101.12 116.26 101.12 90.45"></polygon><path class="cls-11" d="M97.05,89.43l-12,6.67v.72l12.72-7.15s-.58-.33-.73-.24"></path><polygon class="cls-11" points="110.08 69.38 103.53 73.33 103.53 114.92 110.08 111.16 110.08 69.38"></polygon><path class="cls-11" d="M103.48,64.4l4.74,3.15-4.74,3.38s0-6.56,0-6.53"></path><polygon class="cls-11" points="101.17 64.4 101.12 70.69 95.63 67.55 101.17 64.4"></polygon><polygon class="cls-11" points="101.12 73.39 94.13 69.87 94.17 87.81 97.08 86.34 101.12 88.62 101.12 73.39"></polygon><polygon class="cls-11" points="82.72 65.85 82.72 70.69 85.06 72.21 85.06 82.96 91.78 86.61 91.78 71.23 82.72 65.85"></polygon><polygon class="cls-11" points="85.34 64.18 84.54 64.55 91.78 68.73 91.78 68.03 85.34 64.18"></polygon><polygon class="cls-11" points="75.58 57.59 82.72 53.51 82.72 62.66 80.24 64.15 80.24 69.75 75.65 67.19 75.58 57.59"></polygon><polygon class="cls-11" points="75.65 54.7 81.11 51.42 75.65 48.12 75.65 54.7"></polygon><polygon class="cls-3" points="36.69 67.44 46.79 61.22 56.17 66.27 64.07 61.67 64.07 51.67 74.67 45.04 85.64 51.55 85.64 61.74 93.01 65.88 101.85 60.79 112.14 67.11 112.14 112.68 74.75 134.22 36.69 112.3 36.69 67.44"></polygon><polygon class="cls-9" points="73.45 55.22 67.99 51.87 73.45 48.5 73.45 55.22"></polygon><polygon class="cls-9" points="73.52 57.69 66.38 53.5 66.38 62.88 68.86 64.4 68.86 70.14 73.45 67.52 73.52 57.69"></polygon><polygon class="cls-9" points="63.76 64.56 64.56 64.94 57.25 69.32 57.32 68.42 63.76 64.56"></polygon><polygon class="cls-9" points="66.38 66.23 66.38 71.07 64.04 72.6 64.04 83.35 57.32 87 57.32 71.62 66.38 66.23"></polygon><polygon class="cls-9" points="47.98 73.78 54.98 69.89 54.94 88.19 52.02 86.72 47.98 89 47.98 73.78"></polygon><polygon class="cls-9" points="47.98 64.71 47.98 71.07 53.95 67.81 47.98 64.71"></polygon><path class="cls-9" d="M45.57,64.63l-5.18,3.14,5.18,3.3s0-6.46,0-6.44"></path><polygon class="cls-9" points="39.03 69.77 45.57 73.71 45.56 115.24 39.03 111.48 39.03 69.77"></polygon><path class="cls-9" d="M52.14,89.48l12,6.76-.08,1L51.16,90s.83-.57,1-.49"></path><polygon class="cls-9" points="47.98 90.83 64.04 99.63 64.04 125.87 47.98 116.65 47.98 90.83"></polygon><polygon class="cls-9" points="66.38 75 73.47 79.56 73.47 131.18 66.38 127.23 66.38 75"></polygon><polygon class="cls-9" points="64.04 86.21 57.32 89.56 64.04 93.43 64.04 86.21"></polygon><polygon class="cls-9" points="73.45 70.14 67.95 73.13 73.45 76.59 73.45 70.14"></polygon><polygon class="cls-9" points="75.76 55.22 81.22 51.82 75.76 48.4 75.76 55.22"></polygon><polygon class="cls-9" points="75.78 57.75 82.83 53.5 82.83 62.66 80.35 64.14 80.32 70.11 75.78 67.48 75.78 57.75"></polygon><polygon class="cls-9" points="85.45 64.17 84.64 64.54 91.89 68.72 91.89 68.02 85.45 64.17"></polygon><polygon class="cls-9" points="82.83 65.84 82.86 71.15 85.12 72.47 85.17 82.95 91.89 86.6 91.89 71.23 82.83 65.84"></polygon><polygon class="cls-9" points="101.23 73.38 94.23 69.86 94.27 87.8 97.19 86.33 101.23 88.61 101.23 73.38"></polygon><polygon class="cls-9" points="101.23 64.68 101.23 70.68 95.74 67.54 101.23 64.68"></polygon><path class="cls-9" d="M103.64,64.77l5.06,2.77-5.06,3.14s0-5.94,0-5.91"></path><polygon class="cls-9" points="110.18 69.37 103.64 73.32 103.69 115.09 110.19 111.34 110.18 69.37"></polygon><path class="cls-9" d="M97,89.11,85.17,95.84v1l12.92-7.2s-1-.58-1.14-.5"></path><polygon class="cls-9" points="101.23 90.44 85.17 99.23 85.12 125.79 101.27 116.47 101.23 90.44"></polygon><polygon class="cls-9" points="82.83 74.61 75.79 79.55 75.66 131.41 82.86 127.09 82.83 74.61"></polygon><polygon class="cls-9" points="85.17 85.82 91.89 89.17 85.17 93.04 85.17 85.82"></polygon><polygon class="cls-9" points="75.76 70.11 81.03 73.16 75.78 76.62 75.76 70.11"></polygon></g></g></svg> 